<svg width="31" height="31" viewBox="0 0 31 31" fill="none" xmlns="http://www.w3.org/2000/svg">
<circle cx="15.5" cy="15.5" r="15.5" fill="#D9D9D9"/>
<path d="M14.22 19L11.76 15.8H10.83V19H9.95V12H10.83V14.98H11.76L14 12H15.12L12.56 15.37L15.35 19H14.22ZM19.0659 19.11C16.9859 19.11 15.4759 17.6 15.4759 15.51C15.4759 13.41 16.9859 11.9 19.0659 11.9C20.6859 11.9 21.9859 12.86 22.3859 14.37H21.4859C21.1159 13.36 20.2159 12.75 19.0659 12.75C17.5059 12.75 16.3759 13.9 16.3759 15.51C16.3759 17.12 17.5059 18.25 19.0659 18.25C20.2459 18.25 21.1559 17.61 21.5259 16.54H22.4159C22.0159 18.12 20.7159 19.11 19.0659 19.11Z" fill="black"/>
</svg>
