<svg width="14" height="14" viewBox="0 0 14 14" fill="none" xmlns="http://www.w3.org/2000/svg">
<path d="M7 13C10.3137 13 13 10.3137 13 7C13 3.68629 10.3137 1 7 1C3.68629 1 1 3.68629 1 7C1 10.3137 3.68629 13 7 13Z" stroke="#161616" stroke-linecap="round" stroke-linejoin="round"/>
<path d="M10.02 4.9749V6.32491C10.02 7.44991 9.57002 7.8999 8.44502 7.8999H7.09502C5.97002 7.8999 5.52002 7.44991 5.52002 6.32491V4.9749C5.52002 3.8499 5.97002 3.3999 7.09502 3.3999H8.44502C9.57002 3.3999 10.02 3.8499 10.02 4.9749Z" fill="white" stroke="#161616" stroke-width="0.8" stroke-linecap="round" stroke-linejoin="round"/>
<path d="M8.5 7.09502V8.44502C8.5 9.57002 8.05 10.02 6.925 10.02H5.575C4.45 10.02 4 9.57002 4 8.44502V7.09502C4 5.97002 4.45 5.52002 5.575 5.52002H6.925C8.05 5.52002 8.5 5.97002 8.5 7.09502Z" fill="white" stroke="#161616" stroke-width="0.8" stroke-linecap="round" stroke-linejoin="round"/>
</svg>
