<svg width="14" height="14" viewBox="0 0 14 14" fill="none" xmlns="http://www.w3.org/2000/svg">
<path d="M5.02666 7.43224H6.07066V9.86224C6.07066 10.2222 6.51466 10.3902 6.75466 10.1202L9.31066 7.21624C9.53266 6.96424 9.35266 6.56824 9.01666 6.56824H7.97266V4.13824C7.97266 3.77824 7.52866 3.61024 7.28866 3.88024L4.73266 6.78424C4.51066 7.03624 4.69066 7.43224 5.02666 7.43224Z" stroke="#161616" stroke-width="0.8" stroke-miterlimit="10" stroke-linecap="round" stroke-linejoin="round"/>
<path d="M7 13C10.3137 13 13 10.3137 13 7C13 3.68629 10.3137 1 7 1C3.68629 1 1 3.68629 1 7C1 10.3137 3.68629 13 7 13Z" stroke="#161616" stroke-miterlimit="10" stroke-linecap="round" stroke-linejoin="round"/>
</svg>
