<svg width="14" height="14" viewBox="0 0 14 14" fill="none" xmlns="http://www.w3.org/2000/svg">
<path d="M7 13C10.3137 13 13 10.3137 13 7C13 3.68629 10.3137 1 7 1C3.68629 1 1 3.68629 1 7C1 10.3137 3.68629 13 7 13Z" stroke="#161616" stroke-linecap="round" stroke-linejoin="round"/>
<path d="M3.5 7C3.5 8.935 5.065 10.5 7 10.5C8.935 10.5 10.5 8.935 10.5 7C10.5 5.065 8.935 3.5 7 3.5" stroke="#161616" stroke-width="0.8" stroke-linecap="round" stroke-linejoin="round"/>
<path d="M7 9.00024C8.105 9.00024 9 8.10524 9 7.00024C9 5.89524 8.105 5.00024 7 5.00024" stroke="#161616" stroke-width="0.8" stroke-linecap="round" stroke-linejoin="round"/>
</svg>
