<svg width="20" height="20" viewBox="0 0 12 12" fill="none" xmlns="http://www.w3.org/2000/svg">
<path d="M10.83 5.22L10.34 7.31C9.91997 9.115 9.08997 9.845 7.52997 9.695C7.27997 9.675 7.00997 9.63 6.71997 9.56L5.87997 9.36C3.79497 8.865 3.14997 7.835 3.63997 5.745L4.12997 3.65C4.22997 3.225 4.34997 2.855 4.49997 2.55C5.08497 1.34 6.07997 1.015 7.74997 1.41L8.58497 1.605C10.68 2.095 11.32 3.13 10.83 5.22Z" stroke="white" stroke-width="0.89" stroke-linecap="round" stroke-linejoin="round"/>
<path d="M7.52993 9.69499C7.21993 9.90499 6.82993 10.08 6.35493 10.235L5.56493 10.495C3.57993 11.135 2.53493 10.6 1.88993 8.61499L1.24993 6.63999C0.609926 4.65499 1.13993 3.60499 3.12493 2.96499L3.91493 2.70499C4.11993 2.63999 4.31493 2.58499 4.49993 2.54999C4.34993 2.85499 4.22993 3.22499 4.12993 3.64999L3.63993 5.74499C3.14993 7.83499 3.79493 8.86499 5.87993 9.35999L6.71993 9.55999C7.00993 9.62999 7.27993 9.67499 7.52993 9.69499Z" stroke="white" stroke-width="0.89" stroke-linecap="round" stroke-linejoin="round"/>
<path d="M6.32007 4.26501L8.74507 4.88001" stroke="white" stroke-width="0.89" stroke-linecap="round" stroke-linejoin="round"/>
<path d="M5.83008 6.20001L7.28008 6.57001" stroke="white" stroke-width="0.89" stroke-linecap="round" stroke-linejoin="round"/>
</svg>
