<svg width="20" height="20" viewBox="0 0 12 12" fill="none" xmlns="http://www.w3.org/2000/svg">
<path d="M10 4.8C10 2.8 9.2 2 7.2 2H4.8C2.8 2 2 2.8 2 4.8V7.2C2 9.2 2.8 10 4.8 10" stroke="white" stroke-width="0.89" stroke-linecap="round" stroke-linejoin="round"/>
<path d="M8.175 4C7.9 3.65 7.44 3.5 6.75 3.5H5.25C4 3.5 3.5 4 3.5 5.25V6.75C3.5 7.44 3.65 7.9 3.995 8.175" stroke="white" stroke-width="0.89" stroke-linecap="round" stroke-linejoin="round"/>
<path d="M4.005 2V1" stroke="white" stroke-width="0.89" stroke-linecap="round" stroke-linejoin="round"/>
<path d="M6 2V1" stroke="white" stroke-width="0.89" stroke-linecap="round" stroke-linejoin="round"/>
<path d="M8 2V1" stroke="white" stroke-width="0.89" stroke-linecap="round" stroke-linejoin="round"/>
<path d="M10 4H11" stroke="white" stroke-width="0.89" stroke-linecap="round" stroke-linejoin="round"/>
<path d="M4.005 10V11" stroke="white" stroke-width="0.89" stroke-linecap="round" stroke-linejoin="round"/>
<path d="M1 4H2" stroke="white" stroke-width="0.89" stroke-linecap="round" stroke-linejoin="round"/>
<path d="M1 6H2" stroke="white" stroke-width="0.89" stroke-linecap="round" stroke-linejoin="round"/>
<path d="M1 8H2" stroke="white" stroke-width="0.89" stroke-linecap="round" stroke-linejoin="round"/>
<path d="M8.35506 9.29502C8.79412 9.29502 9.15006 8.93908 9.15006 8.50002C9.15006 8.06095 8.79412 7.70502 8.35506 7.70502C7.91599 7.70502 7.56006 8.06095 7.56006 8.50002C7.56006 8.93908 7.91599 9.29502 8.35506 9.29502Z" stroke="white" stroke-width="0.89" stroke-miterlimit="10" stroke-linecap="round" stroke-linejoin="round"/>
<path d="M5.70508 8.73001V8.26501C5.70508 7.99001 5.93008 7.76501 6.20508 7.76501C6.68508 7.76501 6.88008 7.42501 6.64008 7.01001C6.50008 6.77001 6.58508 6.46001 6.82508 6.32501L7.28008 6.06001C7.49008 5.93501 7.76008 6.01001 7.88508 6.22001L7.91508 6.27001C8.15508 6.68501 8.54508 6.68501 8.78508 6.27001L8.81508 6.22001C8.94008 6.01001 9.21008 5.94001 9.42008 6.06001L9.87508 6.32501C10.1151 6.46501 10.2001 6.77001 10.0601 7.01001C9.82008 7.42501 10.0151 7.76501 10.4951 7.76501C10.7701 7.76501 10.9951 7.99001 10.9951 8.26501V8.73001C10.9951 9.00501 10.7701 9.23001 10.4951 9.23001C10.0151 9.23001 9.82008 9.57001 10.0601 9.98501C10.2001 10.225 10.1151 10.535 9.87508 10.67L9.42008 10.935C9.21008 11.06 8.94008 10.985 8.81508 10.775L8.78508 10.725C8.54508 10.31 8.15508 10.31 7.91508 10.725L7.88508 10.775C7.76008 10.985 7.49008 11.055 7.28008 10.935L6.82508 10.67C6.58508 10.53 6.50008 10.225 6.64008 9.98501C6.88008 9.57001 6.68508 9.23001 6.20508 9.23001C5.93008 9.23501 5.70508 9.01001 5.70508 8.73001Z" stroke="white" stroke-width="0.89" stroke-miterlimit="10" stroke-linecap="round" stroke-linejoin="round"/>
</svg>
