<svg width="20" height="20" viewBox="0 0 12 12" fill="none" xmlns="http://www.w3.org/2000/svg">
<path d="M9.00004 3.58C8.97004 3.575 8.93504 3.575 8.90504 3.58C8.21504 3.555 7.66504 2.99 7.66504 2.29C7.66504 1.575 8.24004 1 8.95504 1C9.67004 1 10.245 1.58 10.245 2.29C10.24 2.99 9.69004 3.555 9.00004 3.58Z" stroke="white" stroke-width="0.89" stroke-linecap="round" stroke-linejoin="round"/>
<path d="M8.48497 7.22002C9.16997 7.33502 9.92497 7.21502 10.455 6.86002C11.16 6.39002 11.16 5.62002 10.455 5.15002C9.91997 4.79502 9.15497 4.67502 8.46997 4.79502" stroke="white" stroke-width="0.89" stroke-linecap="round" stroke-linejoin="round"/>
<path d="M2.98499 3.58C3.01499 3.575 3.04999 3.575 3.07999 3.58C3.76999 3.555 4.31999 2.99 4.31999 2.29C4.31999 1.575 3.74499 1 3.02999 1C2.31499 1 1.73999 1.58 1.73999 2.29C1.74499 2.99 2.29499 3.555 2.98499 3.58Z" stroke="white" stroke-width="0.89" stroke-linecap="round" stroke-linejoin="round"/>
<path d="M3.49997 7.22002C2.81497 7.33502 2.05997 7.21502 1.52997 6.86002C0.824971 6.39002 0.824971 5.62002 1.52997 5.15002C2.06497 4.79502 2.82997 4.67502 3.51497 4.79502" stroke="white" stroke-width="0.89" stroke-linecap="round" stroke-linejoin="round"/>
<path d="M6.00004 7.31499C5.97004 7.30999 5.93504 7.30999 5.90504 7.31499C5.21504 7.28999 4.66504 6.72499 4.66504 6.02499C4.66504 5.30999 5.24004 4.73499 5.95504 4.73499C6.67004 4.73499 7.24504 5.31499 7.24504 6.02499C7.24004 6.72499 6.69004 7.29499 6.00004 7.31499Z" stroke="white" stroke-width="0.89" stroke-linecap="round" stroke-linejoin="round"/>
<path d="M4.54499 8.88999C3.83999 9.35999 3.83999 10.13 4.54499 10.6C5.34499 11.135 6.65499 11.135 7.45499 10.6C8.15999 10.13 8.15999 9.35999 7.45499 8.88999C6.65999 8.35999 5.34499 8.35999 4.54499 8.88999Z" stroke="white" stroke-width="0.89" stroke-linecap="round" stroke-linejoin="round"/>
</svg>
