<svg width="12" height="12" viewBox="0 0 12 12" fill="none" xmlns="http://www.w3.org/2000/svg">
<path d="M4.5 11H7.5C10 11 11 10 11 7.5V4.5C11 2 10 1 7.5 1H4.5C2 1 1 2 1 4.5V7.5C1 10 2 11 4.5 11Z" stroke="white" stroke-width="0.89" stroke-linecap="round" stroke-linejoin="round"/>
<path d="M4.5 5C5.05228 5 5.5 4.55228 5.5 4C5.5 3.44772 5.05228 3 4.5 3C3.94772 3 3.5 3.44772 3.5 4C3.5 4.55228 3.94772 5 4.5 5Z" stroke="white" stroke-width="0.89" stroke-linecap="round" stroke-linejoin="round"/>
<path d="M1.33496 9.47503L3.79996 7.82003C4.19496 7.55503 4.76496 7.58503 5.11996 7.89003L5.28496 8.03503C5.67496 8.37003 6.30496 8.37003 6.69496 8.03503L8.77496 6.25003C9.16496 5.91503 9.79496 5.91503 10.185 6.25003L11 6.95003" stroke="white" stroke-width="0.89" stroke-linecap="round" stroke-linejoin="round"/>
</svg>
