<svg width="12" height="12" viewBox="0 0 12 12" fill="none" xmlns="http://www.w3.org/2000/svg">
<path d="M10.5 3.5V8.5C10.5 10 9.75 11 8 11H4C2.25 11 1.5 10 1.5 8.5V3.5C1.5 2 2.25 1 4 1H8C9.75 1 10.5 2 10.5 3.5Z" stroke="white" stroke-width="0.89" stroke-miterlimit="10" stroke-linecap="round" stroke-linejoin="round"/>
<path d="M7.75 1V4.92999C7.75 5.14999 7.48999 5.25999 7.32999 5.11499L6.17001 4.04501C6.07501 3.95501 5.92499 3.95501 5.82999 4.04501L4.67001 5.11499C4.51001 5.25999 4.25 5.14999 4.25 4.92999V1H7.75Z" stroke="white" stroke-width="0.89" stroke-miterlimit="10" stroke-linecap="round" stroke-linejoin="round"/>
<path d="M6.625 7H8.75" stroke="white" stroke-width="0.89" stroke-miterlimit="10" stroke-linecap="round" stroke-linejoin="round"/>
<path d="M4.5 9H8.75" stroke="white" stroke-width="0.89" stroke-miterlimit="10" stroke-linecap="round" stroke-linejoin="round"/>
</svg>
