<svg width="20" height="20" viewBox="0 0 12 12" fill="none" xmlns="http://www.w3.org/2000/svg">
<path d="M6.05999 6.38999C6.02499 6.38499 5.97999 6.38499 5.93999 6.38999C5.05999 6.35999 4.35999 5.63999 4.35999 4.75499C4.35999 3.84999 5.08999 3.11499 5.99999 3.11499C6.90499 3.11499 7.63999 3.84999 7.63999 4.75499C7.63499 5.63999 6.93999 6.35999 6.05999 6.38999Z" stroke="white" stroke-width="0.89" stroke-linecap="round" stroke-linejoin="round"/>
<path d="M9.37 9.69003C8.48 10.505 7.3 11 6 11C4.7 11 3.52 10.505 2.63 9.69003C2.68 9.22003 2.98 8.76003 3.515 8.40003C4.885 7.49003 7.125 7.49003 8.485 8.40003C9.02 8.76003 9.32 9.22003 9.37 9.69003Z" stroke="white" stroke-width="0.89" stroke-linecap="round" stroke-linejoin="round"/>
<path d="M6 11C8.76142 11 11 8.76142 11 6C11 3.23858 8.76142 1 6 1C3.23858 1 1 3.23858 1 6C1 8.76142 3.23858 11 6 11Z" stroke="white" stroke-width="0.89" stroke-linecap="round" stroke-linejoin="round"/>
</svg>
