<?xml version="1.0" encoding="UTF-8" standalone="no"?>
<svg
   width="12"
   height="12"
   viewBox="0 0 12 12"
   fill="none"
   version="1.1"
   id="svg830"
   sodipodi:docname="gridscope.svg"
   inkscape:version="1.1 (c4e8f9e, 2021-05-24)"
   xmlns:inkscape="http://www.inkscape.org/namespaces/inkscape"
   xmlns:sodipodi="http://sodipodi.sourceforge.net/DTD/sodipodi-0.dtd"
   xmlns="http://www.w3.org/2000/svg"
   xmlns:svg="http://www.w3.org/2000/svg">
  <defs
     id="defs834" />
  <sodipodi:namedview
     id="namedview832"
     pagecolor="#ffffff"
     bordercolor="#666666"
     borderopacity="1.0"
     inkscape:pageshadow="2"
     inkscape:pageopacity="0.0"
     inkscape:pagecheckerboard="0"
     showgrid="false"
     inkscape:zoom="29.606885"
     inkscape:cx="5.2859327"
     inkscape:cy="7.0760569"
     inkscape:window-width="1312"
     inkscape:window-height="761"
     inkscape:window-x="0"
     inkscape:window-y="25"
     inkscape:window-maximized="0"
     inkscape:current-layer="svg830" />
  <path
     d="M 6.5650478,0.91788857 9.8673262,2.3843241 c 0.9515378,0.4197811 0.9515378,1.1138193 0,1.5336004 L 6.5650478,5.38436 c -0.3750045,0.1679125 -0.9906835,0.1679125 -1.365688,0 L 1.8970814,3.9179245 c -0.95150394,-0.4197811 -0.95150394,-1.1138193 0,-1.5336004 L 5.1993598,0.91788857 c 0.3750045,-0.16791247 0.9906835,-0.16791247 1.365688,0 z"
     stroke="#161616"
     stroke-linecap="round"
     stroke-linejoin="round"
     id="path824"
     style="stroke-width:1.11942;stroke-miterlimit:4;stroke-dasharray:none" />
  <path
     d="m 0.96262617,5.4402973 c 0,0.4701549 0.35261613,1.0130718 0.78359153,1.2033726 l 3.8004187,1.6903188 c 0.2910482,0.1287329 0.6212761,0.1287329 0.9067272,0 L 10.253782,6.6436699 c 0.430976,-0.1903008 0.783592,-0.7332177 0.783592,-1.2033726"
     stroke="#161616"
     stroke-linecap="round"
     stroke-linejoin="round"
     id="path826"
     style="stroke-width:1.11942;stroke-miterlimit:4;stroke-dasharray:none" />
  <path
     d="m 0.96262617,8.2388383 c 0,0.5205286 0.30783953,0.9906835 0.78359153,1.2033726 L 5.5466364,11.13253 c 0.2910482,0.128733 0.6212761,0.128733 0.9067272,0 L 10.253782,9.4422109 c 0.475752,-0.2126891 0.783592,-0.682844 0.783592,-1.2033726"
     stroke="#161616"
     stroke-linecap="round"
     stroke-linejoin="round"
     id="path828"
     style="stroke-width:1.11942;stroke-miterlimit:4;stroke-dasharray:none" />
</svg>
