<svg  viewBox="0 0 8 9" fill="none" xmlns="http://www.w3.org/2000/svg">
<path d="M2.66667 4.48461V5.26461H1.77778V4.48461H2.66667ZM4.44444 4.48461V5.26461H3.55556V4.48461H4.44444ZM6.22222 4.48461V5.26461H5.33333V4.48461H6.22222ZM7.11111 1.75461C7.34686 1.75461 7.57295 1.83679 7.73965 1.98307C7.90635 2.12934 8 2.32774 8 2.53461V7.99461C8 8.20148 7.90635 8.39987 7.73965 8.54615C7.57295 8.69243 7.34686 8.77461 7.11111 8.77461H0.888889C0.395556 8.77461 0 8.42361 0 7.99461V2.53461C0 2.32774 0.0936505 2.12934 0.260349 1.98307C0.427048 1.83679 0.653141 1.75461 0.888889 1.75461H1.33333V0.974609H2.22222V1.75461H5.77778V0.974609H6.66667V1.75461H7.11111ZM7.11111 7.99461V3.70461H0.888889V7.99461H7.11111ZM2.66667 6.04461V6.82461H1.77778V6.04461H2.66667ZM4.44444 6.04461V6.82461H3.55556V6.04461H4.44444ZM6.22222 6.04461V6.82461H5.33333V6.04461H6.22222Z" fill="black"/>
</svg>
