<svg width="11" height="11" viewBox="0 0 11 11" fill="none" xmlns="http://www.w3.org/2000/svg">
<path d="M5.29785 1.33447H4.46452C2.38118 1.33447 1.54785 2.16781 1.54785 4.25114V6.75114C1.54785 8.83447 2.38118 9.66781 4.46452 9.66781H6.96452C9.04785 9.66781 9.88118 8.83447 9.88118 6.75114V5.91781" stroke="#161616" stroke-width="0.8" stroke-linecap="round" stroke-linejoin="round"/>
<path d="M7.39756 1.75771L4.11423 5.04104C3.98923 5.16604 3.86423 5.41187 3.83923 5.59104L3.66006 6.84521C3.5934 7.29937 3.91423 7.61604 4.3684 7.55354L5.62256 7.37437C5.79756 7.34937 6.0434 7.22437 6.17256 7.09937L9.4559 3.81604C10.0226 3.24937 10.2892 2.59104 9.4559 1.75771C8.62256 0.924373 7.96423 1.19104 7.39756 1.75771Z" stroke="#161616" stroke-width="0.8" stroke-miterlimit="10" stroke-linecap="round" stroke-linejoin="round"/>
<path d="M6.92661 2.22998C7.20577 3.22581 7.98494 4.00498 8.98494 4.28831" stroke="#161616" stroke-width="0.8" stroke-miterlimit="10" stroke-linecap="round" stroke-linejoin="round"/>
</svg>
