<svg width="13" height="11" viewBox="0 0 13 11" fill="none" xmlns="http://www.w3.org/2000/svg">
<path d="M11.7143 8.03554V1.57842C11.7143 0.931873 11.1937 0.461664 10.5555 0.512044H10.522C9.39679 0.604409 7.69223 1.18379 6.735 1.77996L6.64265 1.83875C6.49151 1.93111 6.23116 1.93111 6.07163 1.83875L5.9373 1.75477C4.98847 1.1586 3.28392 0.596004 2.15876 0.503639C1.5206 0.453259 1 0.931891 1 1.57004V8.03554C1 8.54774 1.41983 9.03476 1.93203 9.09354L2.08316 9.11873C3.24192 9.26987 5.03887 9.86604 6.06327 10.4286L6.08844 10.437C6.23118 10.521 6.46628 10.521 6.60063 10.437C7.62503 9.86604 9.43034 9.27827 10.5975 9.11873L10.7738 9.09354C11.2944 9.03476 11.7143 8.55614 11.7143 8.03554Z" stroke="#161616" stroke-width="0.8" stroke-linecap="round" stroke-linejoin="round"/>
<path d="M6.35736 2.01514V10.0424" stroke="#161616" stroke-width="0.8" stroke-linecap="round" stroke-linejoin="round"/>
</svg>
