<svg width="46" height="50" viewBox="0 0 46 50" fill="none" xmlns="http://www.w3.org/2000/svg">
<path d="M22.5631 43.8169H5.35437L19.9175 29.2113L24.4806 33.7877C25.9854 31.4021 28.0728 29.4547 30.5971 28.2376L34.4806 24.3427V26.9961C35.2816 26.8744 36.0825 26.777 36.9078 26.777C37.733 26.777 38.534 26.8744 39.3349 26.9961V14.6056L24.7718 0H5.35437C2.66019 0 0.5 2.1665 0.5 4.86855V43.8169C0.5 46.4946 2.66019 48.6855 5.35437 48.6855H24.3107C23.4612 47.2006 22.8544 45.5696 22.5631 43.8169ZM22.3447 3.65141L35.6942 17.0399H22.3447V3.65141ZM10.2087 17.0399C12.9029 17.0399 15.0631 19.2308 15.0631 21.9085C15.0631 24.5862 12.9029 26.777 10.2087 26.777C7.51456 26.777 5.35437 24.6105 5.35437 21.9085C5.35437 19.2064 7.53883 17.0399 10.2087 17.0399ZM45.5 36.222L40.3301 41.3827L45.5 46.5433L42.0534 50L36.9078 44.815L31.7621 50L28.3398 46.5433L33.4854 41.3827L28.3398 36.222L31.7621 32.7897L36.9078 37.9503L42.0534 32.7897L45.5 36.222Z" fill="white"/>
</svg>
