<svg width="24" height="10" viewBox="0 0 24 10" fill="none" xmlns="http://www.w3.org/2000/svg">
<path d="M5.4208 1.2168L7.87913 2.30846C8.58747 2.62096 8.58747 3.13763 7.87913 3.45013L5.4208 4.5418C5.14163 4.6668 4.6833 4.6668 4.40413 4.5418L1.9458 3.45013C1.23747 3.13763 1.23747 2.62096 1.9458 2.30846L4.40413 1.2168C4.6833 1.0918 5.14163 1.0918 5.4208 1.2168Z" stroke="#161616" stroke-width="0.8" stroke-linecap="round" stroke-linejoin="round"/>
<path d="M1.25 4.58301C1.25 4.93301 1.5125 5.33717 1.83333 5.47884L4.6625 6.73717C4.87917 6.83301 5.125 6.83301 5.3375 6.73717L8.16667 5.47884C8.4875 5.33717 8.75 4.93301 8.75 4.58301" stroke="#161616" stroke-width="0.8" stroke-linecap="round" stroke-linejoin="round"/>
<path d="M1.25 6.66699C1.25 7.05449 1.47917 7.40449 1.83333 7.56283L4.6625 8.82116C4.87917 8.91699 5.125 8.91699 5.3375 8.82116L8.16667 7.56283C8.52083 7.40449 8.75 7.05449 8.75 6.66699" stroke="#161616" stroke-width="0.8" stroke-linecap="round" stroke-linejoin="round"/>
<path d="M17 4.82812L19.7577 7.58584C19.7968 7.62489 19.8601 7.62489 19.8991 7.58584L22.6569 4.82812" stroke="#161616" stroke-opacity="0.5" stroke-linecap="round"/>
</svg>
