<svg width="14" height="15" viewBox="0 0 14 15" fill="none" xmlns="http://www.w3.org/2000/svg">
<rect width="14" height="15" rx="3" fill="#628FEE"/>
<path d="M6.64632 12.6487L6.99988 13.0022L7.35343 12.6487L10.1624 9.83968C11.9091 8.09305 11.9091 5.2612 10.1624 3.51456C8.41581 1.76793 5.58395 1.76793 3.83732 3.51456C2.09069 5.2612 2.09069 8.09305 3.83732 9.83968L6.64632 12.6487Z" fill="#F2F2F2" stroke="#628FEE"/>
<circle cx="6.98647" cy="6.6271" r="2.60366" fill="#628FEE"/>
<path d="M8.13385 6.55276C8.13385 7.18678 7.61988 7.70074 6.98587 7.70074C6.35186 7.70074 5.83789 7.18678 5.83789 6.55276C5.83789 5.91875 6.35186 5.40479 6.98587 5.40479C7.61988 5.40479 8.13385 5.91875 8.13385 6.55276Z" fill="#F2F2F2"/>
</svg>
