<svg width="12" height="11" viewBox="0 0 12 11" fill="none" xmlns="http://www.w3.org/2000/svg">
<path d="M7.68 2.58824V1.61765C7.68 0.711765 6.84 0 6 0C5.16 0 4.32 0.711765 4.32 1.61765V2.58824C3.96 2.58824 3.6 2.97647 3.6 3.36471V5.62941C3.6 6.08235 3.96 6.47059 4.32 6.47059H7.62C8.04 6.47059 8.4 6.08235 8.4 5.69412V3.42941C8.4 2.97647 8.04 2.58824 7.68 2.58824ZM6.9 2.58824H5.1V1.61765C5.1 1.1 5.52 0.77647 6 0.77647C6.48 0.77647 6.9 1.1 6.9 1.61765V2.58824ZM2.4 9.05882V11L0 8.41177L2.4 5.82353V7.76471H9.6V5.82353L12 8.41177L9.6 11V9.05882H2.4Z" fill="#5283ED"/>
</svg>
