<svg width="9" height="8" viewBox="0 0 9 8" fill="none" xmlns="http://www.w3.org/2000/svg">
<path d="M7.054 1.175C6.329 0.45 5.334 0 4.229 0C3.16814 0 2.15072 0.421427 1.40058 1.17157C0.650431 1.92172 0.229004 2.93913 0.229004 4C0.229004 5.06087 0.650431 6.07828 1.40058 6.82843C2.15072 7.57857 3.16814 8 4.229 8C6.094 8 7.649 6.725 8.094 5H7.054C6.644 6.165 5.534 7 4.229 7C3.43335 7 2.67029 6.68393 2.10768 6.12132C1.54507 5.55871 1.229 4.79565 1.229 4C1.229 3.20435 1.54507 2.44129 2.10768 1.87868C2.67029 1.31607 3.43335 1 4.229 1C5.059 1 5.799 1.345 6.339 1.89L4.729 3.5H8.229V0L7.054 1.175Z" fill="#5283ED"/>
</svg>
