<svg width="16" height="16" viewBox="0 0 16 16" fill="none" xmlns="http://www.w3.org/2000/svg">
<path d="M10.825 5.175C10.1 4.45 9.105 4 8 4C6.93913 4 5.92172 4.42143 5.17157 5.17157C4.42143 5.92172 4 6.93913 4 8C4 9.06087 4.42143 10.0783 5.17157 10.8284C5.92172 11.5786 6.93913 12 8 12C9.865 12 11.42 10.725 11.865 9H10.825C10.415 10.165 9.305 11 8 11C7.20435 11 6.44129 10.6839 5.87868 10.1213C5.31607 9.55871 5 8.79565 5 8C5 7.20435 5.31607 6.44129 5.87868 5.87868C6.44129 5.31607 7.20435 5 8 5C8.83 5 9.57 5.345 10.11 5.89L8.5 7.5H12V4L10.825 5.175Z" fill="#8B8B8B"/>
<path d="M10.825 5.175C10.1 4.45 9.105 4 8 4C6.93913 4 5.92172 4.42143 5.17157 5.17157C4.42143 5.92172 4 6.93913 4 8C4 9.06087 4.42143 10.0783 5.17157 10.8284C5.92172 11.5786 6.93913 12 8 12C9.865 12 11.42 10.725 11.865 9H10.825C10.415 10.165 9.305 11 8 11C7.20435 11 6.44129 10.6839 5.87868 10.1213C5.31607 9.55871 5 8.79565 5 8C5 7.20435 5.31607 6.44129 5.87868 5.87868C6.44129 5.31607 7.20435 5 8 5C8.83 5 9.57 5.345 10.11 5.89L8.5 7.5H12V4L10.825 5.175Z" fill="black" fill-opacity="0.2"/>
</svg>
