<svg viewBox="0 0 9 9" fill="none" xmlns="http://www.w3.org/2000/svg">
<path d="M4.5 5.625C5.12132 5.625 5.625 5.12132 5.625 4.5C5.625 3.87868 5.12132 3.375 4.5 3.375C3.87868 3.375 3.375 3.87868 3.375 4.5C3.375 5.12132 3.87868 5.625 4.5 5.625Z" stroke="white" stroke-width="0.5" stroke-miterlimit="10" stroke-linecap="round" stroke-linejoin="round"/>
<path d="M0.750122 4.83053V4.17053C0.750122 3.78053 1.06887 3.45803 1.46262 3.45803C2.14137 3.45803 2.41887 2.97803 2.07762 2.38928C1.88262 2.05178 1.99887 1.61303 2.34012 1.41803L2.98887 1.04678C3.28512 0.870525 3.66762 0.975526 3.84387 1.27178L3.88512 1.34303C4.22262 1.93178 4.77762 1.93178 5.11887 1.34303L5.16012 1.27178C5.33637 0.975526 5.71887 0.870525 6.01512 1.04678L6.66387 1.41803C7.00512 1.61303 7.12137 2.05178 6.92637 2.38928C6.58512 2.97803 6.86262 3.45803 7.54137 3.45803C7.93137 3.45803 8.25387 3.77678 8.25387 4.17053V4.83053C8.25387 5.22053 7.93512 5.54303 7.54137 5.54303C6.86262 5.54303 6.58512 6.02303 6.92637 6.61178C7.12137 6.95303 7.00512 7.38803 6.66387 7.58303L6.01512 7.95428C5.71887 8.13053 5.33637 8.02553 5.16012 7.72928L5.11887 7.65803C4.78137 7.06928 4.22637 7.06928 3.88512 7.65803L3.84387 7.72928C3.66762 8.02553 3.28512 8.13053 2.98887 7.95428L2.34012 7.58303C1.99887 7.38803 1.88262 6.94928 2.07762 6.61178C2.41887 6.02303 2.14137 5.54303 1.46262 5.54303C1.06887 5.54303 0.750122 5.22053 0.750122 4.83053Z" stroke="white" stroke-width="0.5" stroke-miterlimit="10" stroke-linecap="round" stroke-linejoin="round"/>
</svg>
