<svg width="10" height="10" viewBox="0 0 10 10" fill="none" xmlns="http://www.w3.org/2000/svg">
<path d="M8.75 7.5C8.68 7.5 8.62 7.5 8.555 7.52L7.75 5.9C7.975 5.675 8.125 5.355 8.125 5C8.125 4.31 7.565 3.75 6.875 3.75C6.805 3.75 6.75 3.75 6.675 3.77L5.87 2.15C6.105 1.92 6.25 1.605 6.25 1.25C6.25 0.56 5.69 0 5 0C4.31 0 3.75 0.56 3.75 1.25C3.75 1.6 3.895 1.92 4.13 2.145L3.325 3.77C3.25 3.75 3.195 3.75 3.125 3.75C2.435 3.75 1.875 4.31 1.875 5C1.875 5.355 2.02 5.67 2.25 5.895L1.445 7.52C1.38 7.5 1.32 7.5 1.25 7.5C0.56 7.5 0 8.06 0 8.75C0 9.44 0.56 10 1.25 10C1.94 10 2.5 9.44 2.5 8.75C2.5 8.4 2.355 8.08 2.12 7.855L2.93 6.23C3 6.25 3.06 6.25 3.125 6.25C3.19 6.25 3.25 6.25 3.315 6.23L4.13 7.855C3.895 8.08 3.75 8.4 3.75 8.75C3.75 9.44 4.31 10 5 10C5.69 10 6.25 9.44 6.25 8.75C6.25 8.06 5.69 7.5 5 7.5C4.935 7.5 4.87 7.5 4.805 7.52L4 5.9C4.225 5.675 4.375 5.355 4.375 5C4.375 4.65 4.23 4.335 4 4.105L4.805 2.48C4.87 2.5 4.935 2.5 5 2.5C5.065 2.5 5.13 2.5 5.195 2.48L6 4.105C5.77 4.33 5.625 4.65 5.625 5C5.625 5.69 6.185 6.25 6.875 6.25C6.94 6.25 7 6.25 7.065 6.23L7.88 7.855C7.645 8.08 7.5 8.4 7.5 8.75C7.5 9.44 8.06 10 8.75 10C9.44 10 10 9.44 10 8.75C10 8.06 9.44 7.5 8.75 7.5ZM1.25 9.25C0.975 9.25 0.75 9.025 0.75 8.75C0.75 8.475 0.975 8.25 1.25 8.25C1.525 8.25 1.75 8.475 1.75 8.75C1.75 9.025 1.525 9.25 1.25 9.25ZM5.5 8.75C5.5 9.025 5.275 9.25 5 9.25C4.725 9.25 4.5 9.025 4.5 8.75C4.5 8.475 4.725 8.25 5 8.25C5.275 8.25 5.5 8.475 5.5 8.75ZM2.625 5C2.625 4.725 2.85 4.5 3.125 4.5C3.4 4.5 3.625 4.725 3.625 5C3.625 5.275 3.4 5.5 3.125 5.5C2.85 5.5 2.625 5.275 2.625 5ZM4.5 1.25C4.5 0.975 4.725 0.75 5 0.75C5.275 0.75 5.5 0.975 5.5 1.25C5.5 1.525 5.275 1.75 5 1.75C4.725 1.75 4.5 1.525 4.5 1.25ZM6.375 5C6.375 4.725 6.6 4.5 6.875 4.5C7.15 4.5 7.375 4.725 7.375 5C7.375 5.275 7.15 5.5 6.875 5.5C6.6 5.5 6.375 5.275 6.375 5ZM8.75 9.25C8.475 9.25 8.25 9.025 8.25 8.75C8.25 8.475 8.475 8.25 8.75 8.25C9.025 8.25 9.25 8.475 9.25 8.75C9.25 9.025 9.025 9.25 8.75 9.25Z" fill="black"/>
</svg>
