<svg width="12" height="12" viewBox="0 0 12 12" fill="none" xmlns="http://www.w3.org/2000/svg">
<path d="M10.3105 4.225C9.78554 1.915 7.77054 0.875 6.00054 0.875H5.99554C4.23054 0.875 2.21054 1.91 1.68554 4.22C1.10054 6.8 2.68054 8.985 4.11054 10.36C4.64054 10.87 5.32 11.6 6 11.6C6.68 11.6 7.36054 10.87 7.88554 10.36C9.31554 8.985 10.8955 6.805 10.3105 4.225ZM6.00054 6.73C5.13054 6.73 4.42554 6.025 4.42554 5.155C4.42554 4.285 5.13054 3.58 6.00054 3.58C6.87054 3.58 7.57554 4.285 7.57554 5.155C7.57554 6.025 6.87054 6.73 6.00054 6.73Z" fill="#292D32"/>
</svg>
