<svg width="12" height="12" viewBox="0 0 12 12" fill="none" xmlns="http://www.w3.org/2000/svg">
<path d="M6.0098 1.45508C4.3548 1.45508 3.0098 2.80008 3.0098 4.45508V5.90008C3.0098 6.20508 2.8798 6.67008 2.7248 6.93008L2.1498 7.88508C1.7948 8.47508 2.0398 9.13008 2.6898 9.35008C4.8448 10.0701 7.1698 10.0701 9.3248 9.35008C9.9298 9.15008 10.1948 8.43508 9.8648 7.88508L9.2898 6.93008C9.1398 6.67008 9.0098 6.20508 9.0098 5.90008V4.45508C9.0098 2.80508 7.6598 1.45508 6.0098 1.45508Z" stroke="#292D32" stroke-miterlimit="10" stroke-linecap="round"/>
<path d="M6.93447 1.59973C6.77947 1.55473 6.61947 1.51973 6.45447 1.49973C5.97447 1.43973 5.51447 1.47473 5.08447 1.59973C5.22947 1.22973 5.58947 0.969727 6.00947 0.969727C6.42947 0.969727 6.78947 1.22973 6.93447 1.59973Z" stroke="#292D32" stroke-miterlimit="10" stroke-linecap="round" stroke-linejoin="round"/>
<path d="M7.50977 9.53027C7.50977 10.3553 6.83477 11.0303 6.00977 11.0303C5.59977 11.0303 5.21977 10.8603 4.94977 10.5903C4.67977 10.3203 4.50977 9.94027 4.50977 9.53027" stroke="#292D32" stroke-miterlimit="10"/>
</svg>
