<svg  viewBox="0 0 8 11" fill="none" xmlns="http://www.w3.org/2000/svg">
<path d="M3.48968 9.66506C3.48971 9.6651 3.48972 9.66513 3.48974 9.66515C3.48977 9.6652 3.48976 9.66519 3.4897 9.66506C3.12029 8.8559 2.54259 7.71324 1.7474 6.48984C1.63232 6.31279 1.52358 6.14832 1.42139 5.99376C1.15055 5.58411 0.925703 5.24404 0.750655 4.92355C0.515423 4.49286 0.4 4.14748 0.4 3.795C0.4 1.90138 1.85725 0.4 3.61429 0.4C5.37132 0.4 6.82857 1.90138 6.82857 3.795C6.82857 4.53668 6.50677 5.00936 5.48792 6.48005C4.60796 7.75025 4.04044 8.86417 3.6944 9.65487C3.69417 9.6554 3.69376 9.65633 3.69193 9.65827C3.68982 9.66049 3.68506 9.66479 3.67611 9.66979C3.65688 9.68056 3.62576 9.69025 3.58787 9.69097C3.54991 9.69169 3.52008 9.68314 3.50288 9.67419C3.49498 9.67008 3.49133 9.66677 3.49025 9.66568C3.48993 9.66536 3.48976 9.66515 3.48968 9.66506ZM3.48968 9.66506C3.48968 9.66506 3.48967 9.66505 3.48967 9.66504L3.48968 9.66506Z" fill="#161616" fill-opacity="0.7" stroke="white" stroke-width="0.8"/>
<circle cx="3.6142" cy="3.4375" r="0.975" stroke="white" stroke-width="0.8"/>
</svg>
