<svg viewBox="0 0 9 13" fill="none" xmlns="http://www.w3.org/2000/svg">
<path d="M8.1 4.4625C8.1 5.36144 7.70439 5.9373 6.51102 7.65988C5.39867 9.26554 4.71239 10.6578 4.31845 11.5911C4.31811 11.5919 4.31773 11.5927 4.31632 11.5942C4.31467 11.596 4.31063 11.5998 4.30273 11.6043C4.28562 11.6141 4.25716 11.6233 4.22197 11.624C4.18672 11.6247 4.15934 11.6166 4.14395 11.6085C4.13694 11.6047 4.13385 11.6018 4.13305 11.601C4.13253 11.6005 4.13263 11.6006 4.1325 11.6003C3.70586 10.6445 2.998 9.21162 1.99576 7.66968C1.86147 7.46307 1.73421 7.27059 1.61434 7.08929C1.29509 6.60643 1.0283 6.20293 0.820941 5.82327C0.541583 5.3118 0.4 4.89361 0.4 4.4625C0.4 2.20023 2.14187 0.4 4.25 0.4C6.35813 0.4 8.1 2.20023 8.1 4.4625Z" stroke="black" stroke-width="0.8"/>
<circle cx="4.25003" cy="4.04212" r="1.21685" stroke="black" stroke-width="0.8"/>
</svg>
